<svg width="151" height="150" viewBox="0 0 151 150" fill="none" xmlns="http://www.w3.org/2000/svg">
<mask id="mask0_3607_376" style="mask-type:luminance" maskUnits="userSpaceOnUse" x="0" y="0" width="151" height="150">
<path d="M150.476 0H0V150H150.476V0Z" fill="white"/>
</mask>
<g mask="url(#mask0_3607_376)">
<path d="M126.4 0H24.0762C10.7793 0 0 10.7452 0 24V126C0 139.255 10.7793 150 24.0762 150H126.4C139.697 150 150.476 139.255 150.476 126V24C150.476 10.7452 139.697 0 126.4 0Z" fill="#0061FF"/>
<path d="M127.398 117.52C127.977 118.52 127.253 119.77 126.095 119.77H25.5828C24.4245 119.77 23.7005 118.52 24.2797 117.52L74.5354 30.75C75.1147 29.75 76.5627 29.75 77.1417 30.75L127.398 117.52ZM54.3268 78.3934C54.3129 78.4174 54.3302 78.447 54.3577 78.447C54.3705 78.447 54.3821 78.4534 54.3885 78.4646L59.8091 87.6697C60.3959 88.6657 61.8439 88.6549 62.4157 87.6506L66.1972 81.009C66.7686 80.0051 68.2165 79.9942 68.803 80.9895L74.9398 91.4014C75.5267 92.397 76.975 92.3861 77.5461 91.3815L83.5177 80.8867C84.0891 79.8821 85.5375 79.8712 86.124 80.8676L90.1296 87.6701C90.7161 88.6657 92.1641 88.6552 92.7359 87.6514L97.9683 78.4639C97.9743 78.4534 97.9856 78.447 97.9977 78.447C98.024 78.447 98.0405 78.4185 98.0274 78.3956C98.021 78.3848 98.0202 78.3697 98.0266 78.3589C98.0402 78.3356 98.0229 78.3064 97.9958 78.3064C97.983 78.3064 97.9713 78.2996 97.9649 78.2884L77.4795 42.9184C76.9005 41.9186 75.4526 41.9186 74.8736 42.9184L54.3268 78.3934Z" fill="white"/>
</g>
</svg>
